# xmcd
#
# Track frame offsets: 
#        150
#        14434
#        29756
#        43447
#        59802
#        72164
#        89087
#        104625
#        118363
#        131593
#
# Disc length: 1992 seconds
#
# Revision: 4
# Processed by: cddbd v1.5.2PL0 Copyright (c) Steve Scherf et al.
# Submitted via: ExactAudioCopyFreeDBPlugin 1.0
#
DISCID=a607c60a
DTITLE=Miley Cyrus - Meet Miley Cyrus
DYEAR=2007
DGENRE=Pop
TTITLE0=See You Again
TTITLE1=East Northumberland High
TTITLE2=Let's Dance
TTITLE3=G.N.O (Girl's Night Out)
TTITLE4=Right Here
TTITLE5=As I Am
TTITLE6=Start All Over
TTITLE7=Clear
TTITLE8=Good And Broken
TTITLE9=I Miss You
EXTD=YEAR: 2007
EXTT0=
EXTT1=
EXTT2=
EXTT3=
EXTT4=
EXTT5=
EXTT6=
EXTT7=
EXTT8=
EXTT9=
PLAYORDER=
